#N canvas 503 105 515 581 10;
#X obj 159 175 cycle~ 441;
#X obj 154 331 dac~ 1 2 3 4;
#X obj 163 284 gate~ 4;
#X obj 174 21 pulse~ 2 0.92;
#X obj 249 177 asr~ 20 20;
#X obj 205 208 *~;
#X obj 218 250 *~ 0.25;
#X obj 390 181 vsl 15 128 0 127 0 0 empty empty empty 0 -9 0 10 -262144
-1 -1 6200 1;
#X obj 383 329 / 127;
#X floatatom 384 356 5 0 0 0 - - -;
#X obj 136 147 mtof~;
#X obj 23 112 change~;
#X obj 24 138 max~ 0;
#X obj 24 163 add~;
#X obj 24 187 %~ 4;
#X obj 146 258 +~ 1;
#X obj 140 93 *~ 2;
#X obj 138 120 +~ 72;
#X connect 0 0 5 0;
#X connect 2 0 1 0;
#X connect 2 1 1 1;
#X connect 2 2 1 2;
#X connect 2 3 1 3;
#X connect 3 0 4 0;
#X connect 3 0 11 0;
#X connect 4 0 5 1;
#X connect 5 0 6 0;
#X connect 6 0 2 1;
#X connect 7 0 8 0;
#X connect 8 0 9 0;
#X connect 9 0 6 1;
#X connect 10 0 0 0;
#X connect 11 0 12 0;
#X connect 12 0 13 0;
#X connect 13 0 14 0;
#X connect 14 0 15 0;
#X connect 14 0 16 0;
#X connect 15 0 2 0;
#X connect 16 0 17 0;
#X connect 17 0 10 0;
