#N canvas 627 212 527 376 10;
#X obj 119 174 shell;
#X obj 169 177 bng 15 250 50 0 empty empty empty 17 7 0 10 -262144
-1 -1;
#X floatatom 119 240 5 0 0 0 - - -;
#X text 9 239 Temperature [°C];
#X obj 119 67 bng 15 250 50 0 empty empty empty 17 7 0 10 -262144 -1
-1;
#X obj 119 92 t b b;
#X msg 119 118 /home/pi/Documents/workshop/python/;
#X obj 119 144 sprintf %s%s;
#X text 59 11 Requires SunFounder Temperature Sensor DS18b20 connected
;
#X text 152 65 read current value;
#X msg 166 92 read_ds18b20.py;
#X text 59 25 to (GND \, 3.3V \, GPIO4) \, device tree overlay w1-gpio
enabled \, and modprobe w1-gpio \, w1-therm loaded.;
#X connect 0 0 2 0;
#X connect 0 1 1 0;
#X connect 4 0 5 0;
#X connect 5 0 6 0;
#X connect 5 1 10 0;
#X connect 6 0 7 0;
#X connect 7 0 0 0;
#X connect 10 0 7 1;
