#N canvas 267 353 790 306 10;
#X obj 176 125 unpackOSC;
#X obj 176 168 routeOSC /adc0 /adc1 /adc2 /adc3 /adc4 /adc5 /adc6 /adc7
;
#X floatatom 176 202 5 0 0 0 - - -;
#X floatatom 217 202 5 0 0 0 - - -;
#X floatatom 259 202 5 0 0 0 - - -;
#X floatatom 300 203 5 0 0 0 - - -;
#X floatatom 342 203 5 0 0 0 - - -;
#X floatatom 384 203 5 0 0 0 - - -;
#X floatatom 425 203 5 0 0 0 - - -;
#X floatatom 467 202 5 0 0 0 - - -;
#X obj 176 50 udpreceive 57120;
#X text 395 52 start the gpio2osc.py python script in terminal in the
folder: Documents/workshop/python;
#X connect 0 0 1 0;
#X connect 1 0 2 0;
#X connect 1 1 3 0;
#X connect 1 2 4 0;
#X connect 1 3 5 0;
#X connect 1 4 6 0;
#X connect 1 5 7 0;
#X connect 1 6 8 0;
#X connect 1 7 9 0;
#X connect 10 0 0 0;
