#N canvas 698 283 814 456 10;
#X obj 84 280 packOSC;
#X obj 83 323 udpsend;
#X msg 176 286 disconnect;
#X obj 86 81 hsl 128 15 0 127 0 0 empty empty empty -2 -8 0 10 -262144
-1 -1 0 1;
#X obj 83 107 / 127;
#X floatatom 83 133 5 0 0 0 - - -;
#X obj 34 19 inlet;
#X text 87 18 send floats between zero and one;
#X obj 195 212 loadbang;
#X obj 83 244 prepend send;
#X msg 177 257 connect 192.168.0.4 57120;
#X obj 92 216 prepend /pi;
#X obj 90 185 prepend \$1;
#X text 262 56 This abstraction requires an argument for your nick/name
;
#X connect 0 0 1 0;
#X connect 2 0 1 0;
#X connect 3 0 4 0;
#X connect 4 0 5 0;
#X connect 5 0 12 0;
#X connect 6 0 12 0;
#X connect 8 0 10 0;
#X connect 9 0 0 0;
#X connect 10 0 1 0;
#X connect 11 0 9 0;
#X connect 12 0 11 0;
