#N canvas 817 228 814 456 10;
#X obj 515 115 unpackOSC;
#X floatatom 515 215 5 0 0 0 - - -;
#X obj 608 181 print UNKNOWN_MESSAGE;
#X obj 83 245 packOSC;
#X obj 83 323 udpsend;
#X msg 176 286 disconnect;
#X obj 86 81 hsl 128 15 0 127 0 0 empty empty empty -2 -8 0 10 -262144
-1 -1 0 1;
#X obj 83 107 / 127;
#X floatatom 83 133 5 0 0 0 - - -;
#X obj 515 181 unpack f;
#X obj 515 84 gate;
#X obj 515 61 tgl 15 0 empty empty empty 17 7 0 10 -262144 -1 -1 0
1;
#X text 416 216 recovered data;
#X text 337 64 open for debug self-routing;
#X obj 34 19 inlet;
#X text 87 18 send floats between zero and one;
#X obj 641 60 sprintf /data_\$1;
#X obj 345 16 loadbang;
#X obj 641 88 prepend set;
#X obj 515 151 routeOSC /data;
#X obj 83 183 prepend /data;
#X obj 83 215 prepend send;
#X msg 177 257 connect 0.0.0.0 57120;
#X connect 0 0 19 0;
#X connect 3 0 10 1;
#X connect 3 0 4 0;
#X connect 5 0 4 0;
#X connect 6 0 7 0;
#X connect 7 0 8 0;
#X connect 8 0 20 0;
#X connect 9 0 1 0;
#X connect 10 0 0 0;
#X connect 11 0 10 0;
#X connect 14 0 20 0;
#X connect 16 0 18 0;
#X connect 17 0 16 0;
#X connect 17 0 22 0;
#X connect 18 0 19 0;
#X connect 18 0 20 0;
#X connect 19 0 9 0;
#X connect 19 1 2 0;
#X connect 20 0 21 0;
#X connect 21 0 3 0;
#X connect 22 0 4 0;
