#N canvas 649 345 1076 691 10;
#X obj 28 93 analysis~;
#X obj 28 29 adc~;
#X floatatom 28 261 10 0 0 0 - - -, f 10;
#X text 99 263 spectral centroid;
#X obj 77 30 osc~ 2000;
#X text 146 32 test signal;
#X connect 0 0 2 0;
#X connect 1 0 0 0;
#X connect 4 0 0 0;
